<svg version="1.1" id="Layer_1" xmlns="http://www.w3.org/2000/svg" xmlns:xlink="http://www.w3.org/1999/xlink" x="0px" y="0px"
	 width="100%" viewBox="0 0 1800 900" enable-background="new 0 0 1800 900" xml:space="preserve">
<path fill="#FFFFFF" opacity="1.000000" stroke="none" 
	d="
M1198.000000,901.000000 
	C798.666687,901.000000 399.833344,901.000000 1.000000,901.000000 
	C1.000000,601.000000 1.000000,301.000000 1.000000,1.000000 
	C601.000000,1.000000 1201.000000,1.000000 1801.000000,1.000000 
	C1801.000000,301.000000 1801.000000,601.000000 1801.000000,901.000000 
	C1600.166626,901.000000 1399.333374,901.000000 1198.000000,901.000000 
M381.029907,461.952271 
	C381.060638,464.948181 381.091370,467.944092 381.041473,471.851074 
	C381.048584,474.882538 381.055725,477.913971 381.022705,481.888824 
	C381.021729,491.587708 381.020752,501.286621 381.005280,511.925232 
	C381.018036,518.304993 381.030792,524.684692 381.011017,531.968140 
	C381.011017,534.865601 381.011017,537.763000 381.011017,540.680054 
	C394.728363,540.680054 407.576233,540.680054 420.956421,540.680054 
	C420.956421,537.267090 420.956421,534.165771 420.983856,530.119934 
	C420.982635,523.741821 420.981445,517.363647 420.993073,510.050079 
	C420.974426,500.348541 420.955780,490.646973 420.984131,480.044708 
	C420.948730,477.009827 420.913330,473.974945 420.970673,470.048279 
	C420.939758,467.052185 420.908844,464.056091 420.958496,460.149231 
	C420.957794,457.120972 420.957123,454.092712 420.983826,450.119415 
	C420.982574,437.074768 420.981323,424.030151 420.994904,410.051697 
	C420.975647,403.682953 420.956390,397.314178 420.984589,390.047302 
	C420.949646,387.011108 420.914703,383.974915 420.966705,380.013184 
	C420.966705,373.775513 420.966705,367.537872 420.966705,361.317505 
	C407.286102,361.317505 394.402618,361.317505 381.120239,361.317505 
	C381.120239,368.063965 381.120239,374.501343 381.035156,381.852966 
	C381.044403,384.883789 381.053619,387.914612 381.022705,391.888306 
	C381.021790,398.254028 381.020874,404.619781 381.007233,411.924561 
	C381.019348,424.971191 381.031464,438.017822 381.010956,451.963898 
	C381.048004,454.995911 381.085022,458.027924 381.029907,461.952271 
M801.022888,391.888336 
	C801.021973,398.254059 801.020996,404.619781 801.007263,411.924561 
	C801.019348,424.971191 801.031433,438.017822 801.011108,451.963898 
	C801.048035,454.995911 801.084961,458.027924 801.029907,461.950989 
	C801.059998,464.946899 801.090088,467.942810 801.034424,471.853699 
	C801.043945,474.884308 801.053467,477.914886 801.022888,481.888855 
	C801.021912,491.587738 801.020935,501.286621 801.005188,511.925232 
	C801.017944,518.304993 801.030701,524.684692 801.010925,531.968140 
	C801.010925,534.863098 801.010925,537.758118 801.010925,540.676025 
	C811.393677,540.676025 820.913635,540.676025 830.956482,540.676025 
	C830.956482,537.261536 830.956482,534.163025 830.983948,530.119995 
	C830.982666,523.741821 830.981323,517.363647 830.993042,510.050079 
	C830.974365,500.348541 830.955688,490.647034 830.983948,480.050964 
	C831.022827,477.059387 831.061646,474.067780 832.023682,471.020782 
	C904.982361,471.039276 977.941101,471.057770 1050.972900,471.966705 
	C1051.002930,474.959625 1051.032837,477.952545 1051.022827,481.888824 
	C1051.021729,491.587708 1051.020630,501.286591 1051.005127,511.925201 
	C1051.017822,518.304993 1051.030640,524.684753 1051.011108,531.968140 
	C1051.011108,534.863159 1051.011108,537.758118 1051.011108,540.676147 
	C1061.393555,540.676147 1070.913574,540.676147 1080.956543,540.676147 
	C1080.956543,537.261719 1080.956543,534.163147 1080.983887,530.120056 
	C1080.982666,523.741882 1080.981567,517.363647 1080.993408,510.050049 
	C1080.974609,500.348541 1080.955811,490.647003 1080.983887,480.046509 
	C1080.949097,477.010590 1080.914307,473.974640 1080.965698,470.043854 
	C1080.936401,467.049225 1080.907104,464.054626 1080.958374,460.149231 
	C1080.957764,457.120972 1080.957153,454.092712 1080.983887,450.119415 
	C1080.982788,437.074768 1080.981567,424.030121 1080.995117,410.051636 
	C1080.975830,403.682922 1080.956421,397.314209 1080.983765,390.046509 
	C1080.949097,387.010590 1080.914307,383.974640 1080.966797,380.013214 
	C1080.966797,373.777649 1080.966797,367.542084 1080.966797,361.320496 
	C1070.619995,361.320496 1061.064941,361.320496 1051.120361,361.320496 
	C1051.120361,368.068085 1051.120361,374.503418 1051.034424,381.853668 
	C1051.043823,384.884277 1051.053345,387.914856 1051.022827,391.888336 
	C1051.021729,398.254059 1051.020630,404.619751 1051.006836,411.924225 
	C1051.004517,415.919098 1051.001343,419.913940 1051.000000,423.908813 
	C1050.997803,430.997101 1050.998291,430.999542 1044.147583,430.999603 
	C975.402466,431.000244 906.657410,431.000031 837.912292,430.999786 
	C836.747131,430.999786 835.574890,430.912781 834.418213,431.011078 
	C831.771240,431.235992 830.924805,429.978455 830.970764,427.463623 
	C831.071106,421.972687 830.988037,416.478424 830.994812,410.051697 
	C830.975525,403.682953 830.956238,397.314240 830.983887,390.046509 
	C830.949158,387.010590 830.914490,383.974640 830.966736,380.013214 
	C830.966736,373.777679 830.966736,367.542175 830.966736,361.320526 
	C820.620056,361.320526 811.065063,361.320526 801.120178,361.320526 
	C801.120178,368.068115 801.120178,374.503418 801.034485,381.853699 
	C801.044006,384.884308 801.053528,387.914886 801.022888,391.888336 
M1461.011108,531.968140 
	C1461.011108,534.865540 1461.011108,537.762939 1461.011108,540.680054 
	C1474.728271,540.680054 1487.576172,540.680054 1500.956543,540.680054 
	C1500.956543,537.272949 1500.956543,534.168762 1500.983887,530.120056 
	C1500.982666,523.741882 1500.981567,517.363647 1500.993408,510.050049 
	C1500.974731,500.348541 1500.955933,490.647003 1500.983765,480.050934 
	C1501.022583,477.059387 1501.061401,474.067810 1502.023438,471.020782 
	C1571.648926,471.039307 1641.274292,471.057800 1710.973022,471.966705 
	C1711.002930,474.959625 1711.032837,477.952545 1711.022827,481.888824 
	C1711.021729,491.587708 1711.020630,501.286591 1711.005005,511.925201 
	C1711.017822,518.304993 1711.030640,524.684753 1711.011108,531.968140 
	C1711.011108,534.867249 1711.011108,537.766357 1711.011108,540.682861 
	C1728.062988,540.682861 1744.240112,540.682861 1760.956543,540.682861 
	C1760.956543,537.270996 1760.956543,534.167786 1760.983887,530.120056 
	C1760.982666,523.741882 1760.981567,517.363647 1760.993286,510.050049 
	C1760.974609,500.348541 1760.955811,490.647003 1760.983887,480.046509 
	C1760.949097,477.010590 1760.914429,473.974640 1760.966064,470.033417 
	C1760.966064,467.147034 1760.966064,464.260620 1760.966064,460.923706 
	C1753.862915,460.923706 1747.481567,460.923706 1741.027466,460.023468 
	C1741.027466,457.155579 1741.027466,454.287659 1741.027466,450.915497 
	C1737.164307,450.915497 1734.094849,450.915497 1731.008667,450.010590 
	C1730.954590,447.528320 1731.816772,444.312561 1730.584595,442.773224 
	C1729.389160,441.279663 1725.853027,441.892090 1723.713135,440.834412 
	C1722.441406,440.205902 1721.046265,438.072449 1721.152344,436.729828 
	C1721.513672,432.156708 1719.928711,430.236938 1715.316895,430.990845 
	C1711.662109,431.588257 1710.814819,429.695892 1710.944824,426.400787 
	C1711.147339,421.269867 1710.986938,416.124634 1710.995361,410.052002 
	C1710.976318,403.683044 1710.957397,397.314087 1710.980103,390.042603 
	C1710.946655,387.007965 1710.913208,383.973358 1710.966064,380.033722 
	C1710.966064,377.119720 1710.966064,374.205688 1710.966064,371.210083 
	C1707.247681,371.038330 1704.325439,370.903351 1701.251709,370.761383 
	C1701.066895,367.380402 1700.907227,364.457703 1700.734985,361.306152 
	C1620.787354,361.306152 1541.166260,361.306152 1461.120361,361.306152 
	C1461.120361,368.048126 1461.120361,374.493439 1461.035034,381.851379 
	C1461.043823,384.882629 1461.052612,387.913910 1461.017578,391.891693 
	C1461.018311,398.256287 1461.018921,404.620880 1461.006836,411.924530 
	C1461.019043,424.971161 1461.031250,438.017822 1461.010498,451.961090 
	C1461.047119,454.994476 1461.083740,458.027893 1461.034302,461.954895 
	C1461.062988,464.949493 1461.091675,467.944122 1461.034546,471.853668 
	C1461.043945,474.884277 1461.053467,477.914856 1461.022827,481.888824 
	C1461.021729,491.587708 1461.020630,501.286591 1461.005005,511.925201 
	C1461.017822,518.304993 1461.030640,524.684753 1461.011108,531.968140 
M461.011017,531.968140 
	C461.011017,534.865601 461.011017,537.763000 461.011017,540.680054 
	C474.728363,540.680054 487.576233,540.680054 500.956421,540.680054 
	C500.956421,537.267090 500.956421,534.165771 500.983856,530.119934 
	C500.982635,523.741821 500.981445,517.363647 500.993073,510.050079 
	C500.974426,500.348541 500.955780,490.646973 500.984009,480.050934 
	C501.022827,477.059357 501.061646,474.067780 502.023651,471.020752 
	C574.848511,471.020752 647.673401,471.020752 721.040161,471.020752 
	C721.040161,467.248352 721.040161,464.126526 721.950928,461.001495 
	C724.825439,461.001495 727.699951,461.001495 730.961792,461.001495 
	C730.961792,457.162720 730.961792,454.087189 731.882263,451.004333 
	C732.712158,451.002899 733.556946,450.898651 734.369446,451.016876 
	C739.271606,451.730286 742.001648,450.293823 741.028687,444.720093 
	C740.456970,441.445007 742.467102,440.602356 745.197876,441.025970 
	C750.205139,441.802704 751.314758,439.503845 751.100159,434.881439 
	C750.731140,426.931396 750.986633,418.952362 750.994995,410.052002 
	C750.976196,403.683044 750.957397,397.314087 750.980164,390.036591 
	C750.980164,387.155304 750.980164,384.273987 750.980164,380.995300 
	C743.804749,380.995300 737.422424,380.995300 731.011475,380.079803 
	C731.011475,377.159607 731.011475,374.239380 731.011475,371.227356 
	C727.279785,371.047607 724.356384,370.906769 721.234070,370.756378 
	C721.046509,367.288269 720.881775,364.242035 720.722900,361.304535 
	C633.898560,361.304535 547.723145,361.304535 461.120239,361.304535 
	C461.120239,368.046356 461.120239,374.492554 461.035217,381.851318 
	C461.043976,384.882599 461.052734,387.913879 461.017426,391.891663 
	C461.018250,398.256287 461.019104,404.620880 461.007233,411.924561 
	C461.019348,424.971191 461.031464,438.017822 461.010956,451.963898 
	C461.047974,454.995911 461.085022,458.027924 461.029907,461.950989 
	C461.059998,464.946899 461.090088,467.942810 461.034424,471.853668 
	C461.043915,474.884247 461.053375,477.914856 461.022705,481.888824 
	C461.021729,491.587708 461.020752,501.286621 461.005280,511.925232 
	C461.018036,518.304993 461.030792,524.684692 461.011017,531.968140 
M90.966736,470.013519 
	C90.952881,463.709381 90.939026,457.405273 90.975845,450.176758 
	C90.977242,447.122681 90.978645,444.068573 90.992783,440.075439 
	C90.988533,430.378815 90.984283,420.682159 90.994850,410.051758 
	C91.014450,403.722137 91.034050,397.392548 91.983307,391.019928 
	C174.816559,391.019928 257.649811,391.019928 340.879761,391.019928 
	C340.879761,387.183868 340.879761,384.061310 340.966705,380.013184 
	C340.966705,373.766815 340.966705,367.520477 340.966705,361.439819 
	C253.853561,361.439819 167.560196,361.439819 81.185371,361.439819 
	C81.028427,364.799591 80.891876,367.723022 80.750038,370.759430 
	C77.328186,370.944336 74.403442,371.102386 70.959969,371.288483 
	C70.959969,374.748932 70.959969,377.872101 70.029739,380.998871 
	C60.526714,380.998871 51.023689,380.998871 41.061504,380.998871 
	C41.061504,384.757812 41.061504,387.851501 41.016998,391.892578 
	C41.017990,398.256897 41.018982,404.621185 41.007210,411.924561 
	C41.011463,421.621185 41.015717,431.317841 41.005085,441.922607 
	C41.028328,444.982117 41.051571,448.041656 41.020428,452.023743 
	C41.053699,458.328735 41.086975,464.633728 41.035164,471.852966 
	C41.044418,474.883789 41.053677,477.914612 41.022758,481.888824 
	C41.015244,489.996033 41.165756,498.107910 40.927891,506.208344 
	C40.822361,509.802338 41.747585,511.303711 45.603760,511.075836 
	C50.714546,510.773773 55.857353,511.013672 60.995060,511.933685 
	C61.007812,519.950256 61.032661,519.816589 68.250732,521.158081 
	C69.347610,521.361938 70.985840,523.581604 70.846916,524.674866 
	C70.149139,530.165894 72.587677,531.760925 77.566521,531.025208 
	C78.699661,530.857788 79.879700,531.007751 81.009941,531.925354 
	C81.009941,534.837158 81.009941,537.749023 81.009941,540.695435 
	C168.048248,540.695435 254.217621,540.695435 340.956421,540.695435 
	C340.956421,537.294128 340.956421,534.179321 340.983856,530.119934 
	C340.982574,523.741760 340.981323,517.363647 340.994720,510.072510 
	C340.994720,507.164825 340.994720,504.257141 340.994720,501.000000 
	C338.099518,501.000000 336.120605,501.000000 334.141693,501.000000 
	C264.708771,501.000000 195.275864,501.000031 125.842957,501.000000 
	C116.019119,501.000000 106.185921,500.747589 96.375565,501.111237 
	C91.784981,501.281403 90.619293,499.700043 90.918030,495.424713 
	C91.253670,490.621307 90.958076,485.773804 90.984467,480.047333 
	C90.949554,477.011139 90.914642,473.974915 90.966736,470.013519 
M1161.029541,461.962646 
	C1161.029541,464.876007 1161.029541,467.789337 1161.029541,470.701538 
	C1238.049072,470.701538 1314.251831,470.701538 1390.877930,470.701538 
	C1390.877930,467.297363 1390.877930,464.178680 1390.958374,460.149231 
	C1390.957764,457.120972 1390.957153,454.092712 1390.983887,450.119720 
	C1390.989258,445.623718 1390.662231,441.095764 1391.090210,436.640350 
	C1391.552246,431.831604 1389.604248,430.900482 1385.180420,430.910858 
	C1327.897949,431.045441 1270.615112,431.000000 1213.332275,431.000000 
	C1197.845947,431.000000 1182.357666,431.135376 1166.874512,430.912933 
	C1162.541748,430.850677 1160.433716,431.672638 1160.903442,436.586945 
	C1161.361206,441.373474 1161.028809,446.235535 1161.010742,451.963898 
	C1161.047852,454.995880 1161.084961,458.027893 1161.029541,461.962646 
M1131.034912,381.862488 
	C1131.034912,384.782654 1131.034912,387.702789 1131.034912,390.653320 
	C1228.050171,390.653320 1324.262817,390.653320 1420.879639,390.653320 
	C1420.879639,387.187897 1420.879639,384.063324 1420.966797,380.013214 
	C1420.966797,373.764832 1420.966797,367.516449 1420.966797,361.301819 
	C1323.945557,361.301819 1227.749390,361.301819 1131.120361,361.301819 
	C1131.120361,368.042145 1131.120361,374.490417 1131.034912,381.862488 
M1131.006714,511.924103 
	C1131.018921,518.304260 1131.031128,524.684387 1131.011108,531.968140 
	C1131.011108,534.874878 1131.011108,537.781677 1131.011108,540.695435 
	C1228.068970,540.695435 1324.228149,540.695435 1420.956543,540.695435 
	C1420.956543,537.294067 1420.956543,534.179321 1420.983887,530.120056 
	C1420.982666,523.741882 1420.981567,517.363647 1420.995117,510.072510 
	C1420.995117,507.165070 1420.995117,504.257629 1420.995117,501.327606 
	C1323.924927,501.327606 1227.772827,501.327606 1131.019531,501.327606 
	C1131.019531,504.759033 1131.019531,507.872253 1131.006714,511.924103 
M1760.968750,320.152618 
	C1760.939453,317.116180 1760.910156,314.079773 1760.962524,310.124695 
	C1760.962524,307.202698 1760.962524,304.280701 1760.962524,301.335541 
	C1187.291016,301.335541 614.400696,301.335541 41.119118,301.335541 
	C41.119118,304.791382 41.119118,307.917328 41.020390,311.940308 
	C41.063782,314.981201 41.107174,318.022095 41.029037,321.965210 
	C41.029037,324.890594 41.029037,327.816010 41.029037,330.718567 
	C614.676636,330.718567 1187.628418,330.718567 1760.849487,330.718567 
	C1760.849487,327.315186 1760.849487,324.189117 1760.968750,320.152618 
M41.025200,581.937378 
	C41.072071,584.958923 41.118946,587.980469 41.029629,591.910950 
	C41.029629,594.844971 41.029629,597.778992 41.029629,600.700684 
	C614.655762,600.700684 1187.654785,600.700684 1760.834229,600.700684 
	C1760.834229,597.269775 1760.834229,594.135864 1760.973267,590.102722 
	C1760.929077,587.083008 1760.884888,584.063354 1760.963013,580.127502 
	C1760.963013,577.194763 1760.963013,574.262085 1760.963013,571.323425 
	C1187.327881,571.323425 614.359619,571.323425 41.159237,571.323425 
	C41.159237,574.777161 41.159237,577.910522 41.025200,581.937378 
z"/>
<path fill="#93E3F3" opacity="1.000000" stroke="none" 
	d="
M41.119118,311.043274 
	C41.119118,307.917328 41.119118,304.791382 41.119118,301.335541 
	C614.400696,301.335541 1187.291016,301.335541 1760.962524,301.335541 
	C1760.962524,304.280701 1760.962524,307.202698 1760.474854,310.566345 
	C1188.030884,311.005310 616.074524,311.002625 44.118172,311.001740 
	C43.118488,311.001740 42.118801,311.028839 41.119118,311.043274 
z"/>
<path fill="#C61ACD" opacity="1.000000" stroke="none" 
	d="
M1760.834229,591.001953 
	C1760.834229,594.135864 1760.834229,597.269775 1760.834229,600.700684 
	C1187.654785,600.700684 614.655762,600.700684 41.029629,600.700684 
	C41.029629,597.778992 41.029629,594.844971 41.545868,591.455566 
	C614.986145,591.000793 1187.910156,591.001343 1760.834229,591.001953 
z"/>
<path fill="#E412EC" opacity="1.000000" stroke="none" 
	d="
M1760.903809,590.552368 
	C1187.910156,591.001343 614.986145,591.000793 41.613968,591.001099 
	C41.118946,587.980469 41.072071,584.958923 41.549500,581.476074 
	C42.906956,581.009949 43.740116,581.000732 44.573273,581.000732 
	C615.162781,581.000061 1185.752319,581.000061 1756.341797,581.001831 
	C1757.841431,581.001831 1759.341064,581.029114 1760.840698,581.043640 
	C1760.884888,584.063354 1760.929077,587.083008 1760.903809,590.552368 
z"/>
<path fill="#D84BDD" opacity="1.000000" stroke="none" 
	d="
M1760.901855,580.585571 
	C1759.341064,581.029114 1757.841431,581.001831 1756.341797,581.001831 
	C1185.752319,581.000061 615.162781,581.000061 44.573273,581.000732 
	C43.740116,581.000732 42.906956,581.009949 41.616516,581.029358 
	C41.159237,577.910522 41.159237,574.777161 41.159237,571.323425 
	C614.359619,571.323425 1187.327881,571.323425 1760.963013,571.323425 
	C1760.963013,574.262085 1760.963013,577.194763 1760.901855,580.585571 
z"/>
<path fill="#6FD4E8" opacity="1.000000" stroke="none" 
	d="
M41.069756,311.491791 
	C42.118801,311.028839 43.118488,311.001740 44.118172,311.001740 
	C616.074524,311.002625 1188.030884,311.005310 1760.434082,311.025665 
	C1760.910156,314.079773 1760.939453,317.116180 1760.451904,320.586365 
	C1758.601807,321.013397 1757.268677,321.000824 1755.935547,321.000824 
	C1186.006592,320.999969 616.077698,320.999939 46.148796,321.002625 
	C44.482719,321.002625 42.816643,321.042023 41.150566,321.062988 
	C41.107174,318.022095 41.063782,314.981201 41.069756,311.491791 
z"/>
<path fill="#2ACDEE" opacity="1.000000" stroke="none" 
	d="
M41.089802,321.514099 
	C42.816643,321.042023 44.482719,321.002625 46.148796,321.002625 
	C616.077698,320.999939 1186.006592,320.999969 1755.935547,321.000824 
	C1757.268677,321.000824 1758.601807,321.013397 1760.392212,321.041565 
	C1760.849487,324.189117 1760.849487,327.315186 1760.849487,330.718567 
	C1187.628418,330.718567 614.676636,330.718567 41.029037,330.718567 
	C41.029037,327.816010 41.029037,324.890594 41.089802,321.514099 
z"/>
<path fill="#F0F0F0" opacity="1.000000" stroke="none" 
	d="
M750.979919,410.985504 
	C750.986633,418.952362 750.731140,426.931396 751.100159,434.881439 
	C751.314758,439.503845 750.205139,441.802704 745.197876,441.025970 
	C742.467102,440.602356 740.456970,441.445007 741.028687,444.720093 
	C742.001648,450.293823 739.271606,451.730286 734.369446,451.016876 
	C733.556946,450.898651 732.712158,451.002899 730.957275,451.003601 
	C640.369385,451.023407 550.706482,451.043945 461.043549,451.064453 
	C461.031464,438.017822 461.019348,424.971191 461.479980,411.460449 
	C474.961914,410.992767 487.971069,410.989197 500.987549,411.455688 
	C500.996613,415.920563 500.998657,419.915405 500.999878,423.910248 
	C501.002075,430.997101 501.001892,430.999542 507.853699,430.999603 
	C576.598389,431.000244 645.343079,431.000031 714.087769,430.999786 
	C715.252930,430.999756 716.425110,430.912750 717.581787,431.011017 
	C720.228699,431.235962 721.075256,429.978516 721.029297,427.463654 
	C720.928955,421.972778 721.011841,416.478516 721.487366,410.990265 
	C731.629822,410.991730 741.304871,410.988617 750.979919,410.985504 
z"/>
<path fill="#F0F0F0" opacity="1.000000" stroke="none" 
	d="
M801.043518,451.064453 
	C801.031433,438.017822 801.019348,424.971191 801.480103,411.460449 
	C811.628540,410.992706 821.304260,410.989105 830.979919,410.985504 
	C830.988037,416.478424 831.071106,421.972687 830.970764,427.463623 
	C830.924805,429.978455 831.771240,431.235992 834.418213,431.011078 
	C835.574890,430.912781 836.747131,430.999786 837.912292,430.999786 
	C906.657410,431.000031 975.402466,431.000244 1044.147583,430.999603 
	C1050.998291,430.999542 1050.997803,430.997101 1051.000000,423.908813 
	C1051.001343,419.913940 1051.004517,415.919098 1051.479614,411.460266 
	C1061.628418,410.992706 1071.304443,410.989075 1080.980469,410.985474 
	C1080.981567,424.030121 1080.982788,437.074768 1080.506470,450.567993 
	C987.033875,451.032501 894.038696,451.048492 801.043518,451.064453 
z"/>
<path fill="#F0F0F0" opacity="1.000000" stroke="none" 
	d="
M1461.043457,451.064453 
	C1461.031250,438.017822 1461.019043,424.971161 1461.479614,411.460419 
	C1474.961792,410.992737 1487.971069,410.989166 1500.987793,411.455658 
	C1500.996704,416.086029 1500.997559,420.246307 1501.000122,424.406616 
	C1501.004028,430.993164 1501.004517,430.998932 1507.348511,430.999084 
	C1563.096680,431.000641 1618.844971,431.000061 1674.593140,430.999786 
	C1675.591675,430.999786 1676.596802,430.920654 1677.587280,431.008698 
	C1680.237305,431.244324 1681.074707,429.968872 1681.029053,427.459686 
	C1680.929565,421.970062 1681.011719,416.477173 1681.486938,410.990204 
	C1691.629761,410.991699 1701.305054,410.988586 1710.980469,410.985474 
	C1710.986938,416.124634 1711.147339,421.269867 1710.944824,426.400787 
	C1710.814819,429.695892 1711.662109,431.588257 1715.316895,430.990845 
	C1719.928711,430.236938 1721.513672,432.156708 1721.152344,436.729828 
	C1721.046265,438.072449 1722.441406,440.205902 1723.713135,440.834412 
	C1725.853027,441.892090 1729.389160,441.279663 1730.584595,442.773224 
	C1731.816772,444.312561 1730.954590,447.528320 1730.546631,450.494171 
	C1720.267944,450.985168 1710.451294,450.996613 1700.634766,450.999390 
	C1620.770996,451.022003 1540.907227,451.042969 1461.043457,451.064453 
z"/>
<path fill="#F0F0F0" opacity="1.000000" stroke="none" 
	d="
M1131.043457,531.064514 
	C1131.031128,524.684387 1131.018921,518.304260 1131.479492,511.460205 
	C1228.295044,510.992676 1324.637817,510.989075 1420.980469,510.985474 
	C1420.981567,517.363647 1420.982666,523.741882 1420.506470,530.568359 
	C1323.700562,531.032532 1227.371948,531.048523 1131.043457,531.064514 
z"/>
<path fill="#A0A0FF" opacity="1.000000" stroke="none" 
	d="
M1131.120361,380.938721 
	C1131.120361,374.490417 1131.120361,368.042145 1131.120361,361.301819 
	C1227.749390,361.301819 1323.945557,361.301819 1420.966797,361.301819 
	C1420.966797,367.516449 1420.966797,373.764832 1420.466064,380.498047 
	C1323.683716,380.968140 1227.401978,380.953430 1131.120361,380.938721 
z"/>
<path fill="#F0F0F0" opacity="1.000000" stroke="none" 
	d="
M81.038162,531.011597 
	C79.879700,531.007751 78.699661,530.857788 77.566521,531.025208 
	C72.587677,531.760925 70.149139,530.165894 70.846916,524.674866 
	C70.985840,523.581604 69.347610,521.361938 68.250732,521.158081 
	C61.032661,519.816589 61.007812,519.950256 61.460854,511.469482 
	C154.944443,510.998718 247.962234,510.992096 340.980042,510.985504 
	C340.981323,517.363647 340.982574,523.741760 340.506470,530.568237 
	C253.698776,531.014893 167.368469,531.013306 81.038162,531.011597 
z"/>
<path fill="#A0A0FF" opacity="1.000000" stroke="none" 
	d="
M70.959969,380.995270 
	C70.959969,377.872101 70.959969,374.748932 70.959969,371.288483 
	C74.403442,371.102386 77.328186,370.944336 80.750038,370.759430 
	C80.891876,367.723022 81.028427,364.799591 81.185371,361.439819 
	C167.560196,361.439819 253.853561,361.439819 340.966705,361.439819 
	C340.966705,367.520477 340.966705,373.766815 340.466064,380.498016 
	C250.296951,380.986969 160.628464,380.991119 70.959969,380.995270 
z"/>
<path fill="#A0A0FF" opacity="1.000000" stroke="none" 
	d="
M461.120239,380.938721 
	C461.120239,374.492554 461.120239,368.046356 461.120239,361.304535 
	C547.723145,361.304535 633.898560,361.304535 720.722900,361.304535 
	C720.881775,364.242035 721.046509,367.288269 721.234070,370.756378 
	C724.356384,370.906769 727.279785,371.047607 731.011475,371.227356 
	C731.011475,374.239380 731.011475,377.159607 730.553345,380.539246 
	C640.436890,380.978668 550.778564,380.958710 461.120239,380.938721 
z"/>
<path fill="#A0A0FF" opacity="1.000000" stroke="none" 
	d="
M1461.120361,380.938751 
	C1461.120361,374.493439 1461.120361,368.048126 1461.120361,361.306152 
	C1541.166260,361.306152 1620.787354,361.306152 1700.734985,361.306152 
	C1700.907227,364.457703 1701.066895,367.380402 1701.251709,370.761383 
	C1704.325439,370.903351 1707.247681,371.038330 1710.966064,371.210083 
	C1710.966064,374.205688 1710.966064,377.119720 1710.465698,380.508301 
	C1627.016968,380.968170 1544.068726,380.953461 1461.120361,380.938751 
z"/>
<path fill="#F0F0F0" opacity="1.000000" stroke="none" 
	d="
M1161.043457,451.064453 
	C1161.028809,446.235535 1161.361206,441.373474 1160.903442,436.586945 
	C1160.433716,431.672638 1162.541748,430.850677 1166.874512,430.912933 
	C1182.357666,431.135376 1197.845947,431.000000 1213.332275,431.000000 
	C1270.615112,431.000000 1327.897949,431.045441 1385.180420,430.910858 
	C1389.604248,430.900482 1391.552246,431.831604 1391.090210,436.640350 
	C1390.662231,441.095764 1390.989258,445.623718 1390.506470,450.568115 
	C1313.700562,451.032501 1237.371948,451.048462 1161.043457,451.064453 
z"/>
<path fill="#E0E0FF" opacity="1.000000" stroke="none" 
	d="
M340.987366,510.528992 
	C247.962234,510.992096 154.944443,510.998718 61.456520,511.013000 
	C55.857353,511.013672 50.714546,510.773773 45.603760,511.075836 
	C41.747585,511.303711 40.822361,509.802338 40.927891,506.208344 
	C41.165756,498.107910 41.015244,489.996033 41.504608,481.437317 
	C58.303333,480.972321 74.620209,480.958893 90.937088,480.945465 
	C90.958076,485.773804 91.253670,490.621307 90.918030,495.424713 
	C90.619293,499.700043 91.784981,501.281403 96.375565,501.111237 
	C106.185921,500.747589 116.019119,501.000000 125.842957,501.000000 
	C195.275864,501.000031 264.708771,501.000000 334.141693,501.000000 
	C336.120605,501.000000 338.099518,501.000000 340.994720,501.000000 
	C340.994720,504.257141 340.994720,507.164825 340.987366,510.528992 
z"/>
<path fill="#A0A0FF" opacity="1.000000" stroke="none" 
	d="
M1741.100220,460.923706 
	C1747.481567,460.923706 1753.862915,460.923706 1760.966064,460.923706 
	C1760.966064,464.260620 1760.966064,467.147034 1760.465698,470.508118 
	C1743.610107,471.014008 1727.255005,471.045135 1710.899780,471.076294 
	C1641.274292,471.057800 1571.648926,471.039307 1501.084473,471.022156 
	C1487.137085,470.995239 1474.128784,470.966980 1461.120361,470.938721 
	C1461.091675,467.944122 1461.062988,464.949493 1461.534424,461.486023 
	C1489.159302,461.011414 1516.283813,461.008942 1543.408447,460.999329 
	C1609.305664,460.975891 1675.203003,460.949127 1741.100220,460.923706 
z"/>
<path fill="#C0C0FF" opacity="1.000000" stroke="none" 
	d="
M70.494858,380.997070 
	C160.628464,380.991119 250.296951,380.986969 340.422607,380.960785 
	C340.879761,384.061310 340.879761,387.183868 340.879761,391.019928 
	C257.649811,391.019928 174.816559,391.019928 91.044655,391.018646 
	C73.757835,390.993286 57.409672,390.969208 41.061504,390.945160 
	C41.061504,387.851501 41.061504,384.757812 41.061504,380.998871 
	C51.023689,380.998871 60.526714,380.998871 70.494858,380.997070 
z"/>
<path fill="#E0E0FF" opacity="1.000000" stroke="none" 
	d="
M1420.987793,510.528992 
	C1324.637817,510.989075 1228.295044,510.992676 1131.485962,510.990906 
	C1131.019531,507.872253 1131.019531,504.759033 1131.019531,501.327606 
	C1227.772827,501.327606 1323.924927,501.327606 1420.995117,501.327606 
	C1420.995117,504.257629 1420.995117,507.165070 1420.987793,510.528992 
z"/>
<path fill="#C0C0FF" opacity="1.000000" stroke="none" 
	d="
M1131.077637,381.400604 
	C1227.401978,380.953430 1323.683716,380.968140 1420.422485,380.960785 
	C1420.879639,384.063324 1420.879639,387.187897 1420.879639,390.653320 
	C1324.262817,390.653320 1228.050171,390.653320 1131.034912,390.653320 
	C1131.034912,387.702789 1131.034912,384.782654 1131.077637,381.400604 
z"/>
<path fill="#C0C0FF" opacity="1.000000" stroke="none" 
	d="
M1131.027344,531.516357 
	C1227.371948,531.048523 1323.700562,531.032532 1420.492798,531.040588 
	C1420.956543,534.179321 1420.956543,537.294067 1420.956543,540.695435 
	C1324.228149,540.695435 1228.068970,540.695435 1131.011108,540.695435 
	C1131.011108,537.781677 1131.011108,534.874878 1131.027344,531.516357 
z"/>
<path fill="#C0C0FF" opacity="1.000000" stroke="none" 
	d="
M461.077728,381.395020 
	C550.778564,380.958710 640.436890,380.978668 730.567627,380.996979 
	C737.422424,380.995300 743.804749,380.995300 750.980164,380.995300 
	C750.980164,384.273987 750.980164,387.155304 750.497437,390.511169 
	C740.325256,391.011932 730.635925,391.038147 720.483459,391.040161 
	C647.031372,391.032104 574.042358,391.048248 500.581726,391.043793 
	C487.093933,390.997223 474.077728,390.971191 461.061493,390.945160 
	C461.052734,387.913879 461.043976,384.882599 461.077728,381.395020 
z"/>
<path fill="#C0C0FF" opacity="1.000000" stroke="none" 
	d="
M1741.063843,460.473572 
	C1675.203003,460.949127 1609.305664,460.975891 1543.408447,460.999329 
	C1516.283813,461.008942 1489.159302,461.011414 1461.577515,461.039215 
	C1461.083740,458.027893 1461.047119,454.994476 1461.026978,451.512756 
	C1540.907227,451.042969 1620.770996,451.022003 1700.634766,450.999390 
	C1710.451294,450.996613 1720.267944,450.985168 1730.554932,450.946625 
	C1734.094849,450.915497 1737.164307,450.915497 1741.027466,450.915497 
	C1741.027466,454.287659 1741.027466,457.155579 1741.063843,460.473572 
z"/>
<path fill="#C0C0FF" opacity="1.000000" stroke="none" 
	d="
M801.027344,451.514160 
	C894.038696,451.048492 987.033875,451.032501 1080.492798,451.040497 
	C1080.957153,454.092712 1080.957764,457.120972 1080.461182,460.583069 
	C987.016541,461.031250 894.069275,461.045593 801.121948,461.059937 
	C801.084961,458.027924 801.048035,454.995911 801.027344,451.514160 
z"/>
<path fill="#A0A0FF" opacity="1.000000" stroke="none" 
	d="
M801.075928,461.505463 
	C894.069275,461.045593 987.016541,461.031250 1080.420898,461.038452 
	C1080.907104,464.054626 1080.936401,467.049225 1080.465576,470.513367 
	C1070.276855,471.014008 1060.588257,471.045166 1050.899780,471.076294 
	C977.941101,471.057770 904.982361,471.039276 831.084717,471.022156 
	C820.470581,470.995270 810.795349,470.967010 801.120178,470.938721 
	C801.090088,467.942810 801.059998,464.946899 801.075928,461.505463 
z"/>
<path fill="#C0C0FF" opacity="1.000000" stroke="none" 
	d="
M461.027252,451.514160 
	C550.706482,451.043945 640.369385,451.023407 730.497070,451.007263 
	C730.961792,454.087189 730.961792,457.162720 730.961792,461.001495 
	C727.699951,461.001495 724.825439,461.001495 721.023132,461.001404 
	C633.770935,461.020844 547.446472,461.040375 461.122070,461.059937 
	C461.085022,458.027924 461.047974,454.995911 461.027252,451.514160 
z"/>
<path fill="#C0C0FF" opacity="1.000000" stroke="none" 
	d="
M81.024048,531.468506 
	C167.368469,531.013306 253.698776,531.014893 340.492737,531.040527 
	C340.956421,534.179321 340.956421,537.294128 340.956421,540.695435 
	C254.217621,540.695435 168.048248,540.695435 81.009941,540.695435 
	C81.009941,537.749023 81.009941,534.837158 81.024048,531.468506 
z"/>
<path fill="#A0A0FF" opacity="1.000000" stroke="none" 
	d="
M461.075989,461.505463 
	C547.446472,461.040375 633.770935,461.020844 720.567749,461.002991 
	C721.040161,464.126526 721.040161,467.248352 721.040161,471.020752 
	C647.673401,471.020752 574.848511,471.020752 501.084656,471.022095 
	C487.137207,470.995209 474.128693,470.966949 461.120209,470.938721 
	C461.090088,467.942810 461.059998,464.946899 461.075989,461.505463 
z"/>
<path fill="#C0C0FF" opacity="1.000000" stroke="none" 
	d="
M1461.077637,381.395081 
	C1544.068726,380.953461 1627.016968,380.968170 1710.422607,380.960785 
	C1710.913208,383.973358 1710.946655,387.007965 1710.497314,390.514160 
	C1700.325195,391.011963 1690.635986,391.038147 1680.483521,391.040161 
	C1620.364746,391.032104 1560.709106,391.048248 1500.581787,391.043762 
	C1487.093994,390.997162 1474.077759,390.971161 1461.061523,390.945160 
	C1461.052612,387.913910 1461.043823,384.882629 1461.077637,381.395081 
z"/>
<path fill="#C0C0FF" opacity="1.000000" stroke="none" 
	d="
M1161.027100,451.514160 
	C1237.371948,451.048462 1313.700562,451.032501 1390.492798,451.040497 
	C1390.957153,454.092712 1390.957764,457.120972 1390.461182,460.583069 
	C1313.683228,461.031219 1237.402710,461.045563 1161.122070,461.059875 
	C1161.084961,458.027893 1161.047852,454.995880 1161.027100,451.514160 
z"/>
<path fill="#A0A0FF" opacity="1.000000" stroke="none" 
	d="
M1161.075806,461.511261 
	C1237.402710,461.045563 1313.683228,461.031219 1390.420898,461.038452 
	C1390.877930,464.178680 1390.877930,467.297363 1390.877930,470.701538 
	C1314.251831,470.701538 1238.049072,470.701538 1161.029541,470.701538 
	C1161.029541,467.789337 1161.029541,464.876007 1161.075806,461.511261 
z"/>
<path fill="#F0F0F0" opacity="1.000000" stroke="none" 
	d="
M381.043549,451.064453 
	C381.031464,438.017822 381.019348,424.971191 381.479980,411.460449 
	C394.961853,410.992706 407.970947,410.989105 420.980042,410.985504 
	C420.981323,424.030151 420.982574,437.074768 420.506470,450.567993 
	C407.033936,451.032532 394.038727,451.048492 381.043549,451.064453 
z"/>
<path fill="#F0F0F0" opacity="1.000000" stroke="none" 
	d="
M90.980034,410.985535 
	C90.984283,420.682159 90.988533,430.378815 90.520012,440.539551 
	C73.704819,441.007263 57.362396,441.010864 41.019974,441.014465 
	C41.015717,431.317841 41.011463,421.621185 41.479988,411.460449 
	C58.295185,410.992706 74.637611,410.989136 90.980034,410.985535 
z"/>
<path fill="#E0E0FF" opacity="1.000000" stroke="none" 
	d="
M1711.019531,510.985474 
	C1711.020630,501.286591 1711.021729,491.587708 1711.504639,481.437317 
	C1728.303345,480.972351 1744.620239,480.958923 1760.937012,480.945496 
	C1760.955811,490.647003 1760.974609,500.348541 1760.520508,510.523193 
	C1743.704956,510.992706 1727.362183,510.989075 1711.019531,510.985474 
z"/>
<path fill="#E0E0FF" opacity="1.000000" stroke="none" 
	d="
M420.937134,480.945435 
	C420.955780,490.646973 420.974426,500.348541 420.520233,510.523193 
	C407.038177,510.992706 394.028992,510.989105 381.019775,510.985504 
	C381.020752,501.286621 381.021729,491.587708 381.504517,481.437317 
	C394.969940,480.972321 407.953552,480.958862 420.937134,480.945435 
z"/>
<path fill="#E0E0FF" opacity="1.000000" stroke="none" 
	d="
M1500.937134,480.945496 
	C1500.955933,490.647003 1500.974731,500.348541 1500.520508,510.523193 
	C1487.038208,510.992706 1474.028931,510.989105 1461.019531,510.985474 
	C1461.020630,501.286591 1461.021729,491.587708 1461.504639,481.437317 
	C1474.969971,480.972351 1487.953613,480.958923 1500.937134,480.945496 
z"/>
<path fill="#E0E0FF" opacity="1.000000" stroke="none" 
	d="
M500.937134,480.945435 
	C500.955780,490.646973 500.974426,500.348541 500.520233,510.523193 
	C487.038177,510.992706 474.028992,510.989105 461.019775,510.985504 
	C461.020752,501.286621 461.021729,491.587708 461.504517,481.437317 
	C474.969940,480.972321 487.953552,480.958862 500.937134,480.945435 
z"/>
<path fill="#A0A0FF" opacity="1.000000" stroke="none" 
	d="
M90.925171,451.101135 
	C90.939026,457.405273 90.952881,463.709381 90.466095,470.498230 
	C73.683716,470.968170 57.401981,470.953461 41.120251,470.938721 
	C41.086975,464.633728 41.053699,458.328735 41.508236,451.525146 
	C58.305752,451.051392 74.615463,451.076263 90.925171,451.101135 
z"/>
<path fill="#F0F0F0" opacity="1.000000" stroke="none" 
	d="
M1711.012207,511.455322 
	C1727.362183,510.989075 1743.704956,510.992706 1760.514038,510.990906 
	C1760.981567,517.363647 1760.982666,523.741882 1760.506470,530.568359 
	C1743.700562,531.032593 1727.371948,531.048584 1711.043457,531.064514 
	C1711.030640,524.684753 1711.017822,518.304993 1711.012207,511.455322 
z"/>
<path fill="#E0E0FF" opacity="1.000000" stroke="none" 
	d="
M90.987442,410.518646 
	C74.637611,410.989136 58.295185,410.992706 41.486366,410.990906 
	C41.018982,404.621185 41.017990,398.256897 41.039253,391.418884 
	C57.409672,390.969208 73.757835,390.993286 90.579826,391.040161 
	C91.034050,397.392548 91.014450,403.722137 90.987442,410.518646 
z"/>
<path fill="#E0E0FF" opacity="1.000000" stroke="none" 
	d="
M1051.019531,510.985474 
	C1051.020630,501.286591 1051.021729,491.587708 1051.504639,481.437317 
	C1061.636719,480.972351 1071.286865,480.958923 1080.937134,480.945496 
	C1080.955811,490.647003 1080.974609,500.348541 1080.520508,510.523193 
	C1070.371582,510.992706 1060.695557,510.989105 1051.019531,510.985474 
z"/>
<path fill="#E0E0FF" opacity="1.000000" stroke="none" 
	d="
M801.019958,510.985504 
	C801.020935,501.286621 801.021912,491.587738 801.504761,481.437317 
	C811.636719,480.972351 821.286804,480.958923 830.936951,480.945496 
	C830.955688,490.647034 830.974365,500.348541 830.520142,510.523193 
	C820.371460,510.992706 810.695740,510.989105 801.019958,510.985504 
z"/>
<path fill="#F0F0F0" opacity="1.000000" stroke="none" 
	d="
M461.012512,511.455383 
	C474.028992,510.989105 487.038177,510.992706 500.513794,510.990906 
	C500.981445,517.363647 500.982635,523.741821 500.506470,530.568237 
	C487.033905,531.032471 474.038757,531.048462 461.043579,531.064453 
	C461.030792,524.684692 461.018036,518.304993 461.012512,511.455383 
z"/>
<path fill="#E0E0FF" opacity="1.000000" stroke="none" 
	d="
M420.987488,410.518616 
	C407.970947,410.989105 394.961853,410.992706 381.486359,410.990906 
	C381.020874,404.619781 381.021790,398.254028 381.504517,391.437042 
	C394.969940,390.972351 407.953552,390.958893 420.937134,390.945435 
	C420.956390,397.314178 420.975647,403.682953 420.987488,410.518616 
z"/>
<path fill="#E0E0FF" opacity="1.000000" stroke="none" 
	d="
M1461.039551,391.418427 
	C1474.077759,390.971161 1487.093994,390.997162 1500.562012,391.505157 
	C1501.002808,398.319946 1500.991699,404.652771 1500.980469,410.985596 
	C1487.971069,410.989166 1474.961792,410.992737 1461.485962,410.990906 
	C1461.018921,404.620880 1461.018311,398.256287 1461.039551,391.418427 
z"/>
<path fill="#A0A0FF" opacity="1.000000" stroke="none" 
	d="
M381.120239,380.938721 
	C381.120239,374.501343 381.120239,368.063965 381.120239,361.317505 
	C394.402618,361.317505 407.286102,361.317505 420.966705,361.317505 
	C420.966705,367.537872 420.966705,373.775513 420.466064,380.498016 
	C407.017059,380.968140 394.068634,380.953430 381.120239,380.938721 
z"/>
<path fill="#F0F0F0" opacity="1.000000" stroke="none" 
	d="
M381.012512,511.455383 
	C394.028992,510.989105 407.038177,510.992706 420.513794,510.990906 
	C420.981445,517.363647 420.982635,523.741821 420.506470,530.568237 
	C407.033905,531.032532 394.038757,531.048523 381.043579,531.064453 
	C381.030792,524.684692 381.018036,518.304993 381.012512,511.455383 
z"/>
<path fill="#F0F0F0" opacity="1.000000" stroke="none" 
	d="
M1461.012207,511.455322 
	C1474.028931,510.989105 1487.038208,510.992706 1500.514038,510.990906 
	C1500.981567,517.363647 1500.982666,523.741882 1500.506470,530.568359 
	C1487.033813,531.032532 1474.038696,531.048523 1461.043457,531.064514 
	C1461.030640,524.684753 1461.017822,518.304993 1461.012207,511.455322 
z"/>
<path fill="#E0E0FF" opacity="1.000000" stroke="none" 
	d="
M461.039459,391.418396 
	C474.077728,390.971191 487.093933,390.997223 500.562073,391.505188 
	C501.002716,398.319946 500.991486,404.652802 500.980225,410.985626 
	C487.971069,410.989197 474.961914,410.992767 461.486359,410.990906 
	C461.019104,404.620880 461.018250,398.256287 461.039459,391.418396 
z"/>
<path fill="#A0A0FF" opacity="1.000000" stroke="none" 
	d="
M801.120178,380.938721 
	C801.120178,374.503418 801.120178,368.068115 801.120178,361.320526 
	C811.065063,361.320526 820.620056,361.320526 830.966736,361.320526 
	C830.966736,367.542175 830.966736,373.777679 830.466125,380.498047 
	C820.350403,380.968140 810.735291,380.953430 801.120178,380.938721 
z"/>
<path fill="#F0F0F0" opacity="1.000000" stroke="none" 
	d="
M801.012573,511.455383 
	C810.695740,510.989105 820.371460,510.992706 830.513672,510.990906 
	C830.981323,517.363647 830.982666,523.741821 830.506592,530.568237 
	C820.367310,531.032532 810.705383,531.048462 801.043457,531.064453 
	C801.030701,524.684692 801.017944,518.304993 801.012573,511.455383 
z"/>
<path fill="#F0F0F0" opacity="1.000000" stroke="none" 
	d="
M1051.012329,511.455322 
	C1060.695557,510.989105 1070.371582,510.992706 1080.514038,510.990906 
	C1080.981567,517.363647 1080.982666,523.741882 1080.506470,530.568359 
	C1070.367188,531.032593 1060.705322,531.048584 1051.043457,531.064514 
	C1051.030640,524.684753 1051.017822,518.304993 1051.012329,511.455322 
z"/>
<path fill="#E0E0FF" opacity="1.000000" stroke="none" 
	d="
M1680.946655,391.064362 
	C1690.635986,391.038147 1700.325195,391.011963 1710.476562,390.965454 
	C1710.957397,397.314087 1710.976318,403.683044 1710.987915,410.518738 
	C1701.305054,410.988586 1691.629761,410.991699 1681.479492,410.523438 
	C1680.985352,403.722839 1680.965942,397.393585 1680.946655,391.064362 
z"/>
<path fill="#A0A0FF" opacity="1.000000" stroke="none" 
	d="
M1051.120361,380.938721 
	C1051.120361,374.503418 1051.120361,368.068085 1051.120361,361.320496 
	C1061.064941,361.320496 1070.619995,361.320496 1080.966797,361.320496 
	C1080.966797,367.542084 1080.966797,373.777649 1080.466064,380.498047 
	C1070.350342,380.968140 1060.735352,380.953430 1051.120361,380.938721 
z"/>
<path fill="#E0E0FF" opacity="1.000000" stroke="none" 
	d="
M720.946533,391.064331 
	C730.635925,391.038147 740.325256,391.011932 750.476624,390.965454 
	C750.957397,397.314087 750.976196,403.683044 750.987427,410.518738 
	C741.304871,410.988617 731.629822,410.991730 721.479858,410.523499 
	C720.985413,403.722870 720.965942,397.393585 720.946533,391.064331 
z"/>
<path fill="#E0E0FF" opacity="1.000000" stroke="none" 
	d="
M1080.987793,410.518555 
	C1071.304443,410.989075 1061.628418,410.992706 1051.485962,410.990906 
	C1051.020630,404.619751 1051.021729,398.254059 1051.504639,391.437073 
	C1061.636719,390.972351 1071.286865,390.958923 1080.937134,390.945496 
	C1080.956421,397.314209 1080.975830,403.682922 1080.987793,410.518555 
z"/>
<path fill="#E0E0FF" opacity="1.000000" stroke="none" 
	d="
M830.987366,410.518616 
	C821.304260,410.989105 811.628540,410.992706 801.486450,410.990906 
	C801.020996,404.619781 801.021973,398.254059 801.504761,391.437073 
	C811.636719,390.972351 821.286804,390.958923 830.936951,390.945496 
	C830.956238,397.314240 830.975525,403.682953 830.987366,410.518616 
z"/>
<path fill="#E0E0FF" opacity="1.000000" stroke="none" 
	d="
M90.950508,450.638916 
	C74.615463,451.076263 58.305752,451.051392 41.535431,451.063843 
	C41.051571,448.041656 41.028328,444.982117 41.012527,441.468536 
	C57.362396,441.010864 73.704819,441.007263 90.513641,441.009094 
	C90.978645,444.068573 90.977242,447.122681 90.950508,450.638916 
z"/>
<path fill="#C0C0FF" opacity="1.000000" stroke="none" 
	d="
M1711.027344,531.516357 
	C1727.371948,531.048584 1743.700562,531.032593 1760.492798,531.040588 
	C1760.956543,534.167786 1760.956543,537.270996 1760.956543,540.682861 
	C1744.240112,540.682861 1728.062988,540.682861 1711.011108,540.682861 
	C1711.011108,537.766357 1711.011108,534.867249 1711.027344,531.516357 
z"/>
<path fill="#C0C0FF" opacity="1.000000" stroke="none" 
	d="
M41.077705,471.395874 
	C57.401981,470.953461 73.683716,470.968170 90.422585,470.960815 
	C90.914642,473.974915 90.949554,477.011139 90.960777,480.496399 
	C74.620209,480.958893 58.303333,480.972321 41.524696,480.965607 
	C41.053677,477.914612 41.044418,474.883789 41.077705,471.395874 
z"/>
<path fill="#C0C0FF" opacity="1.000000" stroke="none" 
	d="
M1760.960449,480.495972 
	C1744.620239,480.958923 1728.303345,480.972351 1711.524658,480.965637 
	C1711.032837,477.952545 1711.002930,474.959625 1710.936401,471.521484 
	C1727.255005,471.045135 1743.610107,471.014008 1760.422485,470.960785 
	C1760.914429,473.974640 1760.949097,477.010590 1760.960449,480.495972 
z"/>
<path fill="#C0C0FF" opacity="1.000000" stroke="none" 
	d="
M500.960571,480.498169 
	C487.953552,480.958862 474.969940,480.972321 461.524597,480.965607 
	C461.053375,477.914856 461.043915,474.884247 461.077332,471.396179 
	C474.128693,470.966949 487.137207,470.995209 500.623077,471.049805 
	C501.061646,474.067780 501.022827,477.059357 500.960571,480.498169 
z"/>
<path fill="#C0C0FF" opacity="1.000000" stroke="none" 
	d="
M420.960632,480.495056 
	C407.953552,480.958862 394.969940,480.972321 381.524597,480.965607 
	C381.055725,477.913971 381.048584,474.882538 381.538757,471.417084 
	C394.983337,470.968750 407.930634,470.954407 420.877930,470.940063 
	C420.913330,473.974945 420.948730,477.009827 420.960632,480.495056 
z"/>
<path fill="#C0C0FF" opacity="1.000000" stroke="none" 
	d="
M1500.960449,480.498230 
	C1487.953613,480.958923 1474.969971,480.972351 1461.524658,480.965637 
	C1461.053467,477.914856 1461.043945,474.884277 1461.077393,471.396179 
	C1474.128784,470.966980 1487.137085,470.995239 1500.622803,471.049866 
	C1501.061401,474.067810 1501.022583,477.059387 1500.960449,480.498230 
z"/>
<path fill="#C0C0FF" opacity="1.000000" stroke="none" 
	d="
M381.027283,531.516296 
	C394.038757,531.048523 407.033905,531.032532 420.492737,531.040527 
	C420.956421,534.165771 420.956421,537.267090 420.956421,540.680054 
	C407.576233,540.680054 394.728363,540.680054 381.011017,540.680054 
	C381.011017,537.763000 381.011017,534.865601 381.027283,531.516296 
z"/>
<path fill="#C0C0FF" opacity="1.000000" stroke="none" 
	d="
M461.027283,531.516235 
	C474.038757,531.048462 487.033905,531.032471 500.492737,531.040466 
	C500.956421,534.165771 500.956421,537.267090 500.956421,540.680054 
	C487.576233,540.680054 474.728363,540.680054 461.011017,540.680054 
	C461.011017,537.763000 461.011017,534.865601 461.027283,531.516235 
z"/>
<path fill="#C0C0FF" opacity="1.000000" stroke="none" 
	d="
M1461.027344,531.516357 
	C1474.038696,531.048523 1487.033813,531.032532 1500.492798,531.040588 
	C1500.956543,534.168762 1500.956543,537.272949 1500.956543,540.680054 
	C1487.576172,540.680054 1474.728271,540.680054 1461.011108,540.680054 
	C1461.011108,537.762939 1461.011108,534.865540 1461.027344,531.516357 
z"/>
<path fill="#C0C0FF" opacity="1.000000" stroke="none" 
	d="
M381.077698,381.395844 
	C394.068634,380.953430 407.017059,380.968140 420.422607,380.960785 
	C420.914703,383.974915 420.949646,387.011108 420.960876,390.496368 
	C407.953552,390.958893 394.969940,390.972351 381.524597,390.965607 
	C381.053619,387.914612 381.044403,384.883789 381.077698,381.395844 
z"/>
<path fill="#C0C0FF" opacity="1.000000" stroke="none" 
	d="
M381.027252,451.514160 
	C394.038727,451.048492 407.033936,451.032532 420.492798,451.040497 
	C420.957123,454.092712 420.957794,457.120972 420.461243,460.583069 
	C407.016663,461.031250 394.069366,461.045593 381.122070,461.059937 
	C381.085022,458.027924 381.048004,454.995911 381.027252,451.514160 
z"/>
<path fill="#A0A0FF" opacity="1.000000" stroke="none" 
	d="
M381.075989,461.506104 
	C394.069366,461.045593 407.016663,461.031250 420.420929,461.038452 
	C420.908844,464.056091 420.939758,467.052185 420.924316,470.494171 
	C407.930634,470.954407 394.983337,470.968750 381.579071,470.961548 
	C381.091370,467.944092 381.060638,464.948181 381.075989,461.506104 
z"/>
<path fill="#C0C0FF" opacity="1.000000" stroke="none" 
	d="
M830.960449,480.498230 
	C821.286804,480.958923 811.636719,480.972351 801.524780,480.965637 
	C801.053467,477.914886 801.043945,474.884308 801.077271,471.396240 
	C810.795349,470.967010 820.470581,470.995270 830.623169,471.049866 
	C831.061646,474.067780 831.022827,477.059387 830.960449,480.498230 
z"/>
<path fill="#C0C0FF" opacity="1.000000" stroke="none" 
	d="
M1080.960449,390.496002 
	C1071.286865,390.958923 1061.636719,390.972351 1051.524658,390.965637 
	C1051.053345,387.914856 1051.043823,384.884277 1051.077393,381.396179 
	C1060.735352,380.953430 1070.350342,380.968140 1080.422363,380.960785 
	C1080.914307,383.974640 1080.949097,387.010590 1080.960449,390.496002 
z"/>
<path fill="#C0C0FF" opacity="1.000000" stroke="none" 
	d="
M1080.960449,480.496002 
	C1071.286865,480.958923 1061.636719,480.972351 1051.524658,480.965637 
	C1051.032837,477.952545 1051.002930,474.959625 1050.936279,471.521484 
	C1060.588257,471.045166 1070.276855,471.014008 1080.422485,470.960785 
	C1080.914307,473.974640 1080.949097,477.010590 1080.960449,480.496002 
z"/>
<path fill="#C0C0FF" opacity="1.000000" stroke="none" 
	d="
M801.027222,531.516235 
	C810.705383,531.048462 820.367310,531.032532 830.492798,531.040527 
	C830.956482,534.163025 830.956482,537.261536 830.956482,540.676025 
	C820.913635,540.676025 811.393677,540.676025 801.010925,540.676025 
	C801.010925,537.758118 801.010925,534.863098 801.027222,531.516235 
z"/>
<path fill="#C0C0FF" opacity="1.000000" stroke="none" 
	d="
M1051.027344,531.516357 
	C1060.705322,531.048584 1070.367188,531.032593 1080.492798,531.040588 
	C1080.956543,534.163147 1080.956543,537.261719 1080.956543,540.676147 
	C1070.913574,540.676147 1061.393555,540.676147 1051.011108,540.676147 
	C1051.011108,537.758118 1051.011108,534.863159 1051.027344,531.516357 
z"/>
<path fill="#C0C0FF" opacity="1.000000" stroke="none" 
	d="
M830.960449,390.496002 
	C821.286804,390.958923 811.636719,390.972351 801.524780,390.965637 
	C801.053528,387.914886 801.044006,384.884308 801.077332,381.396210 
	C810.735291,380.953430 820.350403,380.968140 830.422607,380.960785 
	C830.914490,383.974640 830.949158,387.010590 830.960449,390.496002 
z"/>
<path fill="#FFFFFF" opacity="1.000000" stroke="none" 
	d="
M720.483398,391.040161 
	C720.965942,397.393585 720.985413,403.722870 721.012451,410.518890 
	C721.011841,416.478516 720.928955,421.972778 721.029297,427.463654 
	C721.075256,429.978516 720.228699,431.235962 717.581787,431.011017 
	C716.425110,430.912750 715.252930,430.999756 714.087769,430.999786 
	C645.343079,431.000031 576.598389,431.000244 507.853699,430.999603 
	C501.001892,430.999542 501.002075,430.997101 500.999878,423.910248 
	C500.998657,419.915405 500.996613,415.920563 500.987579,411.455688 
	C500.991486,404.652802 501.002716,398.319946 501.033630,391.525757 
	C574.042358,391.048248 647.031372,391.032104 720.483398,391.040161 
z"/>
<path fill="#FFFFFF" opacity="1.000000" stroke="none" 
	d="
M1680.483521,391.040161 
	C1680.965942,397.393585 1680.985352,403.722839 1681.012085,410.518829 
	C1681.011719,416.477173 1680.929565,421.970062 1681.029053,427.459686 
	C1681.074707,429.968872 1680.237305,431.244324 1677.587280,431.008698 
	C1676.596802,430.920654 1675.591675,430.999786 1674.593140,430.999786 
	C1618.844971,431.000061 1563.096680,431.000641 1507.348511,430.999084 
	C1501.004517,430.998932 1501.004028,430.993164 1501.000122,424.406616 
	C1500.997559,420.246307 1500.996704,416.086029 1500.987793,411.455658 
	C1500.991699,404.652771 1501.002808,398.319946 1501.033691,391.525757 
	C1560.709106,391.048248 1620.364746,391.032104 1680.483521,391.040161 
z"/>
</svg>