<?xml version="1.0" encoding="UTF-8"?>
<svg version="1.1" xmlns="http://www.w3.org/2000/svg" width="1800" height="900">
<path d="M0 0 C567.6 0 1135.2 0 1720 0 C1720 9.9 1720 19.8 1720 30 C1152.4 30 584.8 30 0 30 C0 20.1 0 10.2 0 0 Z " fill="#E412EC" transform="translate(40,570)"/>
<path d="M0 0 C567.6 0 1135.2 0 1720 0 C1720 9.9 1720 19.8 1720 30 C1152.4 30 584.8 30 0 30 C0 20.1 0 10.2 0 0 Z " fill="#6FD4E8" transform="translate(40,300)"/>
<path d="M0 0 C79.2 0 158.4 0 240 0 C240 3.3 240 6.6 240 10 C243.3 10 246.6 10 250 10 C250 29.8 250 49.6 250 70 C253.3 70 256.6 70 260 70 C260 73.3 260 76.6 260 80 C263.3 80 266.6 80 270 80 C270 83.3 270 86.6 270 90 C273.3 90 276.6 90 280 90 C280 93.3 280 96.6 280 100 C286.6 100 293.2 100 300 100 C300 126.4 300 152.8 300 180 C283.5 180 267 180 250 180 C250 156.9 250 133.8 250 110 C180.7 110 111.4 110 40 110 C40 133.1 40 156.2 40 180 C26.8 180 13.6 180 0 180 C0 120.6 0 61.2 0 0 Z M40 30 C40 43.2 40 56.4 40 70 C99.4 70 158.8 70 220 70 C220 56.8 220 43.6 220 30 C160.6 30 101.2 30 40 30 Z " fill="#F0F0F0" transform="translate(1460,360)"/>
<path d="M0 0 C85.8 0 171.6 0 260 0 C260 9.9 260 19.8 260 30 C177.5 30 95 30 10 30 C10 66.3 10 102.6 10 140 C92.5 140 175 140 260 140 C260 153.2 260 166.4 260 180 C174.2 180 88.4 180 0 180 C0 176.7 0 173.4 0 170 C-3.3 170 -6.6 170 -10 170 C-10 166.7 -10 163.4 -10 160 C-13.3 160 -16.6 160 -20 160 C-20 156.7 -20 153.4 -20 150 C-26.6 150 -33.2 150 -40 150 C-40 107.1 -40 64.2 -40 20 C-30.1 20 -20.2 20 -10 20 C-10 16.7 -10 13.4 -10 10 C-6.7 10 -3.4 10 0 10 C0 6.7 0 3.4 0 0 Z " fill="#E0E0FF" transform="translate(80,360)"/>
<path d="M0 0 C85.8 0 171.6 0 260 0 C260 3.3 260 6.6 260 10 C263.3 10 266.6 10 270 10 C270 13.3 270 16.6 270 20 C276.6 20 283.2 20 290 20 C290 39.8 290 59.6 290 80 C286.7 80 283.4 80 280 80 C280 83.3 280 86.6 280 90 C276.7 90 273.4 90 270 90 C270 93.3 270 96.6 270 100 C266.7 100 263.4 100 260 100 C260 103.3 260 106.6 260 110 C187.4 110 114.8 110 40 110 C40 133.1 40 156.2 40 180 C26.8 180 13.6 180 0 180 C0 120.6 0 61.2 0 0 Z M40 30 C40 43.2 40 56.4 40 70 C112.6 70 185.2 70 260 70 C260 56.8 260 43.6 260 30 C187.4 30 114.8 30 40 30 Z " fill="#F0F0F0" transform="translate(460,360)"/>
<path d="M0 0 C9.9 0 19.8 0 30 0 C30 23.1 30 46.2 30 70 C102.6 70 175.2 70 250 70 C250 46.9 250 23.8 250 0 C259.9 0 269.8 0 280 0 C280 59.4 280 118.8 280 180 C270.1 180 260.2 180 250 180 C250 156.9 250 133.8 250 110 C177.4 110 104.8 110 30 110 C30 133.1 30 156.2 30 180 C20.1 180 10.2 180 0 180 C0 120.6 0 61.2 0 0 Z " fill="#B0B0FF" transform="translate(800,360)"/>
<path d="M0 0 C567.6 0 1135.2 0 1720 0 C1720 3.3 1720 6.6 1720 10 C1152.4 10 584.8 10 0 10 C0 6.7 0 3.4 0 0 Z " fill="#C61ACD" transform="translate(40,590)"/>
<path d="M0 0 C567.6 0 1135.2 0 1720 0 C1720 3.3 1720 6.6 1720 10 C1152.4 10 584.8 10 0 10 C0 6.7 0 3.4 0 0 Z " fill="#D84BDD" transform="translate(40,570)"/>
<path d="M0 0 C567.6 0 1135.2 0 1720 0 C1720 3.3 1720 6.6 1720 10 C1152.4 10 584.8 10 0 10 C0 6.7 0 3.4 0 0 Z " fill="#2ACDEE" transform="translate(40,320)"/>
<path d="M0 0 C567.6 0 1135.2 0 1720 0 C1720 3.3 1720 6.6 1720 10 C1152.4 10 584.8 10 0 10 C0 6.7 0 3.4 0 0 Z " fill="#93E3F3" transform="translate(40,300)"/>
<path d="M0 0 C92.4 0 184.8 0 280 0 C280 3.3 280 6.6 280 10 C286.6 10 293.2 10 300 10 C300 36.4 300 62.8 300 90 C283.5 90 267 90 250 90 C250 66.9 250 43.8 250 20 C180.7 20 111.4 20 40 20 C40 43.1 40 66.2 40 90 C26.8 90 13.6 90 0 90 C0 60.3 0 30.6 0 0 Z " fill="#AFAFFF" transform="translate(1460,450)"/>
<path d="M0 0 C95.7 0 191.4 0 290 0 C290 13.2 290 26.4 290 40 C194.3 40 98.6 40 0 40 C0 26.8 0 13.6 0 0 Z " fill="#F0F0F0" transform="translate(1130,500)"/>
<path d="M0 0 C9.9 0 19.8 0 30 0 C30 23.1 30 46.2 30 70 C102.6 70 175.2 70 250 70 C250 46.9 250 23.8 250 0 C259.9 0 269.8 0 280 0 C280 29.7 280 59.4 280 90 C187.6 90 95.2 90 0 90 C0 60.3 0 30.6 0 0 Z " fill="#F0F0F0" transform="translate(800,360)"/>
<path d="M0 0 C75.9 0 151.8 0 230 0 C230 13.2 230 26.4 230 40 C154.1 40 78.2 40 0 40 C0 26.8 0 13.6 0 0 Z " fill="#A0A0FF" transform="translate(1160,430)"/>
<path d="M0 0 C95.7 0 191.4 0 290 0 C290 9.9 290 19.8 290 30 C194.3 30 98.6 30 0 30 C0 20.1 0 10.2 0 0 Z " fill="#A0A0FF" transform="translate(1130,360)"/>
<path d="M0 0 C85.8 0 171.6 0 260 0 C260 9.9 260 19.8 260 30 C161 30 62 30 -40 30 C-40 26.7 -40 23.4 -40 20 C-30.1 20 -20.2 20 -10 20 C-10 16.7 -10 13.4 -10 10 C-6.7 10 -3.4 10 0 10 C0 6.7 0 3.4 0 0 Z " fill="#A0A0FF" transform="translate(80,360)"/>
<path d="M0 0 C85.8 0 171.6 0 260 0 C260 3.3 260 6.6 260 10 C263.3 10 266.6 10 270 10 C270 13.3 270 16.6 270 20 C276.6 20 283.2 20 290 20 C290 23.3 290 26.6 290 30 C194.3 30 98.6 30 0 30 C0 20.1 0 10.2 0 0 Z " fill="#A0A0FF" transform="translate(460,360)"/>
<path d="M0 0 C92.4 0 184.8 0 280 0 C280 9.9 280 19.8 280 30 C194.2 30 108.4 30 20 30 C20 26.7 20 23.4 20 20 C16.7 20 13.4 20 10 20 C10 16.7 10 13.4 10 10 C6.7 10 3.4 10 0 10 C0 6.7 0 3.4 0 0 Z " fill="#F0F0F0" transform="translate(60,510)"/>
<path d="M0 0 C89.1 0 178.2 0 270 0 C270 3.3 270 6.6 270 10 C266.7 10 263.4 10 260 10 C260 13.3 260 16.6 260 20 C187.4 20 114.8 20 40 20 C40 43.1 40 66.2 40 90 C26.8 90 13.6 90 0 90 C0 60.3 0 30.6 0 0 Z " fill="#B0B0FF" transform="translate(460,450)"/>
<path d="M0 0 C79.2 0 158.4 0 240 0 C240 3.3 240 6.6 240 10 C243.3 10 246.6 10 250 10 C250 16.6 250 23.2 250 30 C167.5 30 85 30 0 30 C0 20.1 0 10.2 0 0 Z " fill="#A0A0FF" transform="translate(1460,360)"/>
<path d="M0 0 C13.2 0 26.4 0 40 0 C40 59.4 40 118.8 40 180 C26.8 180 13.6 180 0 180 C0 120.6 0 61.2 0 0 Z " fill="#F0F0F0" transform="translate(380,360)"/>
<path d="M0 0 C75.9 0 151.8 0 230 0 C230 6.6 230 13.2 230 20 C154.1 20 78.2 20 0 20 C0 13.4 0 6.8 0 0 Z " fill="#F0F0F0" transform="translate(1160,430)"/>
<path d="M0 0 C16.5 0 33 0 50 0 C50 19.8 50 39.6 50 60 C33.5 60 17 60 0 60 C0 40.2 0 20.4 0 0 Z " fill="#E6E6F9" transform="translate(1710,480)"/>
<path d="M0 0 C16.5 0 33 0 50 0 C50 19.8 50 39.6 50 60 C33.5 60 17 60 0 60 C0 40.2 0 20.4 0 0 Z " fill="#F0F0F0" transform="translate(40,390)"/>
<path d="M0 0 C99 0 198 0 300 0 C300 3.3 300 6.6 300 10 C201 10 102 10 0 10 C0 6.7 0 3.4 0 0 Z " fill="#C0C0FF" transform="translate(40,380)"/>
<path d="M0 0 C95.7 0 191.4 0 290 0 C290 3.3 290 6.6 290 10 C194.3 10 98.6 10 0 10 C0 6.7 0 3.4 0 0 Z " fill="#C0C0FF" transform="translate(1130,530)"/>
<path d="M0 0 C95.7 0 191.4 0 290 0 C290 3.3 290 6.6 290 10 C194.3 10 98.6 10 0 10 C0 6.7 0 3.4 0 0 Z " fill="#E0E0FF" transform="translate(1130,500)"/>
<path d="M0 0 C95.7 0 191.4 0 290 0 C290 3.3 290 6.6 290 10 C194.3 10 98.6 10 0 10 C0 6.7 0 3.4 0 0 Z " fill="#C0C0FF" transform="translate(1130,380)"/>
<path d="M0 0 C95.7 0 191.4 0 290 0 C290 3.3 290 6.6 290 10 C194.3 10 98.6 10 0 10 C0 6.7 0 3.4 0 0 Z " fill="#C0C0FF" transform="translate(460,380)"/>
<path d="M0 0 C85.8 0 171.6 0 260 0 C260 3.3 260 6.6 260 10 C174.2 10 88.4 10 0 10 C0 6.7 0 3.4 0 0 Z " fill="#C0C0FF" transform="translate(80,530)"/>
<path d="M0 0 C82.5 0 165 0 250 0 C250 3.3 250 6.6 250 10 C167.5 10 85 10 0 10 C0 6.7 0 3.4 0 0 Z " fill="#C0C0FF" transform="translate(1460,380)"/>
<path d="M0 0 C13.2 0 26.4 0 40 0 C40 19.8 40 39.6 40 60 C26.8 60 13.6 60 0 60 C0 40.2 0 20.4 0 0 Z " fill="#E6E6F9" transform="translate(1460,480)"/>
<path d="M0 0 C13.2 0 26.4 0 40 0 C40 19.8 40 39.6 40 60 C26.8 60 13.6 60 0 60 C0 40.2 0 20.4 0 0 Z " fill="#E6E6F9" transform="translate(460,480)"/>
<path d="M0 0 C13.2 0 26.4 0 40 0 C40 19.8 40 39.6 40 60 C26.8 60 13.6 60 0 60 C0 40.2 0 20.4 0 0 Z " fill="#E6E6F9" transform="translate(380,480)"/>
<path d="M0 0 C75.9 0 151.8 0 230 0 C230 3.3 230 6.6 230 10 C154.1 10 78.2 10 0 10 C0 6.7 0 3.4 0 0 Z " fill="#C0C0FF" transform="translate(1160,450)"/>
<path d="M0 0 C9.9 0 19.8 0 30 0 C30 19.8 30 39.6 30 60 C20.1 60 10.2 60 0 60 C0 40.2 0 20.4 0 0 Z " fill="#E6E6F9" transform="translate(1050,480)"/>
<path d="M0 0 C9.9 0 19.8 0 30 0 C30 19.8 30 39.6 30 60 C20.1 60 10.2 60 0 60 C0 40.2 0 20.4 0 0 Z " fill="#E6E6F9" transform="translate(800,480)"/>
<path d="M0 0 C16.5 0 33 0 50 0 C50 9.9 50 19.8 50 30 C33.5 30 17 30 0 30 C0 20.1 0 10.2 0 0 Z " fill="#A0A0FF" transform="translate(40,450)"/>
<path d="M0 0 C13.2 0 26.4 0 40 0 C40 9.9 40 19.8 40 30 C26.8 30 13.6 30 0 30 C0 20.1 0 10.2 0 0 Z " fill="#A0A0FF" transform="translate(380,450)"/>
<path d="M0 0 C13.2 0 26.4 0 40 0 C40 9.9 40 19.8 40 30 C26.8 30 13.6 30 0 30 C0 20.1 0 10.2 0 0 Z " fill="#A0A0FF" transform="translate(380,360)"/>
<path d="M0 0 C16.5 0 33 0 50 0 C50 6.6 50 13.2 50 20 C33.5 20 17 20 0 20 C0 13.4 0 6.8 0 0 Z " fill="#E0E0FF" transform="translate(40,390)"/>
<path d="M0 0 C9.9 0 19.8 0 30 0 C30 9.9 30 19.8 30 30 C20.1 30 10.2 30 0 30 C0 20.1 0 10.2 0 0 Z " fill="#A0A0FF" transform="translate(1050,360)"/>
<path d="M0 0 C9.9 0 19.8 0 30 0 C30 9.9 30 19.8 30 30 C20.1 30 10.2 30 0 30 C0 20.1 0 10.2 0 0 Z " fill="#A0A0FF" transform="translate(800,360)"/>
<path d="M0 0 C13.2 0 26.4 0 40 0 C40 6.6 40 13.2 40 20 C26.8 20 13.6 20 0 20 C0 13.4 0 6.8 0 0 Z " fill="#E0E0FF" transform="translate(1460,390)"/>
<path d="M0 0 C13.2 0 26.4 0 40 0 C40 6.6 40 13.2 40 20 C26.8 20 13.6 20 0 20 C0 13.4 0 6.8 0 0 Z " fill="#E0E0FF" transform="translate(460,390)"/>
<path d="M0 0 C13.2 0 26.4 0 40 0 C40 6.6 40 13.2 40 20 C26.8 20 13.6 20 0 20 C0 13.4 0 6.8 0 0 Z " fill="#E0E0FF" transform="translate(380,390)"/>
<path d="M0 0 C9.9 0 19.8 0 30 0 C30 6.6 30 13.2 30 20 C20.1 20 10.2 20 0 20 C0 13.4 0 6.8 0 0 Z " fill="#E0E0FF" transform="translate(1680,390)"/>
<path d="M0 0 C9.9 0 19.8 0 30 0 C30 6.6 30 13.2 30 20 C20.1 20 10.2 20 0 20 C0 13.4 0 6.8 0 0 Z " fill="#E0E0FF" transform="translate(1050,390)"/>
<path d="M0 0 C9.9 0 19.8 0 30 0 C30 6.6 30 13.2 30 20 C20.1 20 10.2 20 0 20 C0 13.4 0 6.8 0 0 Z " fill="#E0E0FF" transform="translate(800,390)"/>
<path d="M0 0 C9.9 0 19.8 0 30 0 C30 6.6 30 13.2 30 20 C20.1 20 10.2 20 0 20 C0 13.4 0 6.8 0 0 Z " fill="#E0E0FF" transform="translate(720,390)"/>
<path d="M0 0 C16.5 0 33 0 50 0 C50 3.3 50 6.6 50 10 C33.5 10 17 10 0 10 C0 6.7 0 3.4 0 0 Z " fill="#C0C0FF" transform="translate(1710,530)"/>
<path d="M0 0 C16.5 0 33 0 50 0 C50 3.3 50 6.6 50 10 C33.5 10 17 10 0 10 C0 6.7 0 3.4 0 0 Z " fill="#C0C0FF" transform="translate(1710,470)"/>
<path d="M0 0 C16.5 0 33 0 50 0 C50 3.3 50 6.6 50 10 C33.5 10 17 10 0 10 C0 6.7 0 3.4 0 0 Z " fill="#C0C0FF" transform="translate(40,470)"/>
<path d="M0 0 C16.5 0 33 0 50 0 C50 3.3 50 6.6 50 10 C33.5 10 17 10 0 10 C0 6.7 0 3.4 0 0 Z " fill="#E0E0FF" transform="translate(40,440)"/>
<path d="M0 0 C13.2 0 26.4 0 40 0 C40 3.3 40 6.6 40 10 C26.8 10 13.6 10 0 10 C0 6.7 0 3.4 0 0 Z " fill="#C0C0FF" transform="translate(1460,530)"/>
<path d="M0 0 C13.2 0 26.4 0 40 0 C40 3.3 40 6.6 40 10 C26.8 10 13.6 10 0 10 C0 6.7 0 3.4 0 0 Z " fill="#C0C0FF" transform="translate(460,530)"/>
<path d="M0 0 C13.2 0 26.4 0 40 0 C40 3.3 40 6.6 40 10 C26.8 10 13.6 10 0 10 C0 6.7 0 3.4 0 0 Z " fill="#C0C0FF" transform="translate(380,530)"/>
<path d="M0 0 C13.2 0 26.4 0 40 0 C40 3.3 40 6.6 40 10 C26.8 10 13.6 10 0 10 C0 6.7 0 3.4 0 0 Z " fill="#C0C0FF" transform="translate(1460,470)"/>
<path d="M0 0 C13.2 0 26.4 0 40 0 C40 3.3 40 6.6 40 10 C26.8 10 13.6 10 0 10 C0 6.7 0 3.4 0 0 Z " fill="#C0C0FF" transform="translate(460,470)"/>
<path d="M0 0 C13.2 0 26.4 0 40 0 C40 3.3 40 6.6 40 10 C26.8 10 13.6 10 0 10 C0 6.7 0 3.4 0 0 Z " fill="#C0C0FF" transform="translate(380,470)"/>
<path d="M0 0 C13.2 0 26.4 0 40 0 C40 3.3 40 6.6 40 10 C26.8 10 13.6 10 0 10 C0 6.7 0 3.4 0 0 Z " fill="#C0C0FF" transform="translate(380,450)"/>
<path d="M0 0 C13.2 0 26.4 0 40 0 C40 3.3 40 6.6 40 10 C26.8 10 13.6 10 0 10 C0 6.7 0 3.4 0 0 Z " fill="#C0C0FF" transform="translate(380,380)"/>
<path d="M0 0 C9.9 0 19.8 0 30 0 C30 3.3 30 6.6 30 10 C20.1 10 10.2 10 0 10 C0 6.7 0 3.4 0 0 Z " fill="#C0C0FF" transform="translate(1050,530)"/>
<path d="M0 0 C9.9 0 19.8 0 30 0 C30 3.3 30 6.6 30 10 C20.1 10 10.2 10 0 10 C0 6.7 0 3.4 0 0 Z " fill="#C0C0FF" transform="translate(800,530)"/>
<path d="M0 0 C9.9 0 19.8 0 30 0 C30 3.3 30 6.6 30 10 C20.1 10 10.2 10 0 10 C0 6.7 0 3.4 0 0 Z " fill="#C0C0FF" transform="translate(1050,470)"/>
<path d="M0 0 C9.9 0 19.8 0 30 0 C30 3.3 30 6.6 30 10 C20.1 10 10.2 10 0 10 C0 6.7 0 3.4 0 0 Z " fill="#C0C0FF" transform="translate(800,470)"/>
<path d="M0 0 C9.9 0 19.8 0 30 0 C30 3.3 30 6.6 30 10 C20.1 10 10.2 10 0 10 C0 6.7 0 3.4 0 0 Z " fill="#C0C0FF" transform="translate(1050,380)"/>
<path d="M0 0 C9.9 0 19.8 0 30 0 C30 3.3 30 6.6 30 10 C20.1 10 10.2 10 0 10 C0 6.7 0 3.4 0 0 Z " fill="#C0C0FF" transform="translate(800,380)"/>
</svg>
